<?xml version="1.0" standalone="no"?>
<!DOCTYPE svg PUBLIC "-//W3C//DTD SVG 20010904//EN"
 "http://www.w3.org/TR/2001/REC-SVG-20010904/DTD/svg10.dtd">
<svg version="1.0" xmlns="http://www.w3.org/2000/svg"
 width="480.000000pt" height="480.000000pt" viewBox="0 0 480.000000 480.000000"
 preserveAspectRatio="xMidYMid meet">
<metadata>
Created by potrace 1.14, written by Peter Selinger 2001-2017
</metadata>
<g transform="translate(0.000000,480.000000) scale(0.100000,-0.100000)"
fill="#000000" stroke="none">
<path d="M2282 4583 c-62 -115 -121 -224 -132 -243 -11 -19 -148 -273 -305
-565 -157 -291 -290 -537 -295 -545 -5 -8 -23 -41 -40 -73 -17 -32 -101 -187
-187 -345 -86 -158 -171 -316 -189 -351 l-34 -63 54 -102 c29 -55 62 -117 73
-136 11 -19 39 -71 63 -115 24 -44 60 -111 82 -148 21 -38 38 -70 38 -72 0 -2
46 -88 103 -192 57 -103 127 -233 157 -288 29 -55 74 -138 100 -185 26 -47 71
-130 100 -185 29 -55 56 -104 60 -110 4 -5 31 -55 60 -110 29 -55 72 -134 95
-175 23 -41 64 -115 90 -165 27 -49 80 -149 119 -220 39 -72 77 -143 85 -158
8 -15 17 -27 21 -27 5 0 57 93 218 394 24 45 72 133 106 196 35 63 79 144 98
180 20 36 50 92 68 125 18 33 49 89 68 125 19 36 48 88 63 115 14 28 174 321
353 653 l326 602 -41 78 c-39 72 -54 100 -128 235 -15 28 -57 106 -92 172 -35
66 -75 141 -89 167 -14 25 -40 75 -59 110 -32 60 -70 129 -131 243 -15 28 -49
91 -75 140 -26 50 -56 104 -65 120 -9 17 -39 71 -65 120 -26 50 -62 117 -80
150 -40 74 -87 162 -150 280 -26 50 -71 133 -100 185 -48 87 -130 241 -185
348 -12 23 -27 42 -34 42 -7 0 -62 -93 -124 -207z"/>
</g>
</svg>
